<svg width="10152" height="2974" viewBox="0 0 10152 2974" fill="none" xmlns="http://www.w3.org/2000/svg">
<path fill-rule="evenodd" clip-rule="evenodd" d="M1166 2722.12L994 2880V1171H1166V2722.12ZM213 2327C244.762 2327 271.583 2305.69 280.143 2276.5H366.5V2716.5L201.5 2881V2326.05C205.242 2326.68 209.083 2327 213 2327ZM213 2186C248.117 2186 277.194 2212.04 282.229 2246H696.771C701.806 2212.04 730.883 2186 766 2186C804.66 2186 836 2217.56 836 2256.5C836 2286.76 817.077 2312.56 790.5 2322.56V2908.5H968V1171.5L790.5 1327V1982.44C817.077 1992.44 836 2018.25 836 2048.5C836 2087.44 804.66 2119 766 2119C732.275 2119 704.12 2094.98 697.482 2063H281.518C274.88 2094.98 246.725 2119 213 2119C174.34 2119 143 2087.44 143 2048.5C143 2022.82 156.63 2000.35 177 1988.03V1171.5L0 1327V2908.5H177V2316.97C156.63 2304.65 143 2282.18 143 2256.5C143 2217.56 174.34 2186 213 2186ZM244.387 1985.47C234.947 1980.69 224.285 1978 213 1978C210.979 1978 208.978 1978.09 207 1978.26V1171H375V1854.34L244.387 1985.47ZM281.812 2035.5C278.961 2020.09 271.135 2006.45 260.076 1996.32L393.5 1867.5H766V1978C731.75 1978 703.245 2002.77 697.188 2035.5H281.812Z" fill="white"/>
<path d="M1554.35 2668H1393.53V1900.99H1554.35V2668ZM1372.91 1674.19C1372.91 1646.69 1382.53 1623.33 1401.77 1604.08C1422.39 1583.46 1447.13 1573.15 1476 1573.15C1503.49 1573.15 1526.86 1583.46 1546.1 1604.08C1566.72 1623.33 1577.03 1646.69 1577.03 1674.19C1577.03 1703.05 1566.72 1727.79 1546.1 1748.41C1526.86 1767.66 1503.49 1777.28 1476 1777.28C1447.13 1777.28 1423.08 1766.97 1403.84 1746.35C1383.22 1727.11 1372.91 1703.05 1372.91 1674.19ZM1850.83 2668H1690.01V1900.99H1850.83V2039.13C1876.95 1992.4 1912.69 1955.97 1958.05 1929.86C2004.79 1902.36 2054.27 1888.62 2106.51 1888.62C2195.85 1888.62 2266.64 1915.42 2318.88 1969.03C2371.11 2022.64 2397.23 2098.93 2397.23 2197.9V2668H2234.34V2247.38C2234.34 2105.8 2175.92 2035.01 2059.08 2035.01C1999.98 2035.01 1950.49 2054.25 1910.63 2092.74C1870.77 2129.86 1850.83 2182.78 1850.83 2251.51V2668ZM2719.59 2030.89V2420.58C2719.59 2457.69 2729.21 2487.24 2748.45 2509.24C2769.07 2529.86 2796.56 2540.16 2830.93 2540.16C2862.54 2540.16 2895.53 2522.98 2929.9 2488.62L2995.88 2604.08C2938.15 2654.94 2875.6 2680.37 2808.25 2680.37C2738.15 2680.37 2679.04 2656.32 2630.93 2608.21C2582.82 2558.72 2558.76 2494.8 2558.76 2416.45V2030.89H2461.86V1900.99H2558.76V1659.75H2719.59V1900.99H2921.65V2030.89H2719.59ZM3025.17 1900.99H3185.99V2709.24C3185.99 2788.96 3161.94 2852.88 3113.83 2900.99C3067.09 2949.1 3008.67 2973.15 2938.57 2973.15C2867.09 2973.15 2803.86 2947.73 2748.88 2896.87L2823.1 2777.28C2857.47 2808.89 2891.15 2824.7 2924.14 2824.7C2991.49 2824.7 3025.17 2784.84 3025.17 2705.11V1900.99ZM3002.49 1674.19C3002.49 1646.69 3012.11 1623.33 3031.35 1604.08C3051.97 1583.46 3076.03 1573.15 3103.52 1573.15C3131.01 1573.15 3155.06 1583.46 3175.68 1604.08C3196.3 1623.33 3206.61 1646.69 3206.61 1674.19C3206.61 1703.05 3196.3 1727.79 3175.68 1748.41C3155.06 1767.66 3131.01 1777.28 3103.52 1777.28C3076.03 1777.28 3051.97 1766.97 3031.35 1746.35C3012.11 1728.48 3002.49 1704.43 3002.49 1674.19ZM4035.05 2354.6H3432.99C3437.11 2409.58 3462.54 2454.25 3509.28 2488.62C3556.02 2522.98 3610.31 2540.16 3672.17 2540.16C3769.76 2540.16 3842.61 2509.92 3890.72 2449.44L3983.51 2550.47C3901.03 2637.07 3793.13 2680.37 3659.8 2680.37C3549.83 2680.37 3457.73 2643.95 3383.51 2571.09C3309.28 2498.24 3272.17 2402.02 3272.17 2282.43C3272.17 2165.59 3309.97 2070.75 3385.57 1997.9C3461.17 1925.04 3552.58 1888.62 3659.8 1888.62C3767.01 1888.62 3856.36 1920.92 3927.84 1985.53C3999.31 2050.13 4035.05 2136.04 4035.05 2243.26V2354.6ZM3874.23 2226.76C3874.23 2164.91 3854.3 2116.11 3814.43 2080.37C3775.95 2044.63 3725.77 2026.76 3663.92 2026.76C3602.06 2026.76 3547.77 2045.32 3501.03 2082.43C3455.67 2119.55 3432.99 2167.66 3432.99 2226.76H3874.23ZM4275.05 2668H4114.23V1900.99H4275.05V2039.13C4301.17 1992.4 4336.91 1955.97 4382.27 1929.86C4429.01 1902.36 4478.49 1888.62 4530.72 1888.62C4620.07 1888.62 4690.86 1915.42 4743.09 1969.03C4795.33 2022.64 4821.45 2098.93 4821.45 2197.9V2668H4658.56V2247.38C4658.56 2105.8 4600.14 2035.01 4483.3 2035.01C4424.19 2035.01 4374.71 2054.25 4334.85 2092.74C4294.98 2129.86 4275.05 2182.78 4275.05 2251.51V2668ZM6009.36 2389.65L6118.64 2500.99C6014.18 2620.58 5884.97 2680.37 5731.01 2680.37C5578.44 2680.37 5451.29 2631.57 5349.57 2533.98C5249.23 2435.01 5199.05 2310.61 5199.05 2160.78C5199.05 2009.58 5250.6 1884.49 5353.69 1785.53C5456.79 1685.18 5586.68 1635.01 5743.38 1635.01C5897.34 1635.01 6027.23 1692.74 6133.08 1808.21L6025.86 1925.73C5977.75 1879 5932.39 1846.69 5889.78 1828.82C5847.16 1810.96 5796.99 1802.02 5739.26 1802.02C5636.17 1802.02 5549.57 1835.01 5479.47 1900.99C5410.74 1966.97 5376.37 2050.82 5376.37 2152.54C5376.37 2252.88 5410.74 2338.1 5479.47 2408.21C5548.2 2478.31 5629.98 2513.36 5724.83 2513.36C5782.56 2513.36 5832.04 2503.74 5873.28 2484.49C5915.89 2465.25 5961.25 2433.64 6009.36 2389.65ZM6825.47 2668H6679.08V2564.91C6614.48 2641.88 6529.25 2680.37 6423.41 2680.37C6342.31 2680.37 6275.64 2657.69 6223.41 2612.33C6172.55 2565.59 6147.12 2505.11 6147.12 2430.89C6147.12 2356.66 6174.61 2300.3 6229.6 2261.81C6284.58 2223.33 6360.18 2204.08 6456.4 2204.08H6666.71V2175.22C6666.71 2073.5 6609.66 2022.64 6495.58 2022.64C6424.1 2022.64 6349.87 2048.76 6272.9 2100.99L6200.73 1999.96C6295.58 1925.73 6401.42 1888.62 6518.26 1888.62C6613.1 1888.62 6688.02 1912.67 6743 1960.78C6797.98 2007.52 6825.47 2078.31 6825.47 2173.15V2668ZM6664.65 2317.48H6483.2C6366.37 2317.48 6307.95 2353.91 6307.95 2426.76C6307.95 2463.88 6322.38 2492.74 6351.25 2513.36C6380.11 2532.6 6420.66 2542.23 6472.9 2542.23C6526.5 2542.23 6571.86 2527.79 6608.98 2498.93C6646.09 2468.69 6664.65 2429.51 6664.65 2381.4V2317.48ZM7113.33 2338.1V2668H6952.51V1900.99H7113.33V2053.57C7139.45 2005.46 7174.5 1966.28 7218.49 1936.04C7263.85 1905.8 7311.27 1889.99 7360.76 1888.62L7362.82 2051.51H7354.57C7276.22 2051.51 7216.43 2076.93 7175.19 2127.79C7133.95 2178.65 7113.33 2248.76 7113.33 2338.1ZM8138.18 2354.6H7536.12C7540.24 2409.58 7565.67 2454.25 7612.4 2488.62C7659.14 2522.98 7713.44 2540.16 7775.29 2540.16C7872.89 2540.16 7945.74 2509.92 7993.85 2449.44L8086.63 2550.47C8004.16 2637.07 7896.25 2680.37 7762.92 2680.37C7652.95 2680.37 7560.86 2643.95 7486.63 2571.09C7412.4 2498.24 7375.29 2402.02 7375.29 2282.43C7375.29 2165.59 7413.09 2070.75 7488.69 1997.9C7564.29 1925.04 7655.7 1888.62 7762.92 1888.62C7870.14 1888.62 7959.48 1920.92 8030.96 1985.53C8102.44 2050.13 8138.18 2136.04 8138.18 2243.26V2354.6ZM7977.35 2226.76C7977.35 2164.91 7957.42 2116.11 7917.56 2080.37C7879.07 2044.63 7828.9 2026.76 7767.04 2026.76C7705.19 2026.76 7650.89 2045.32 7604.16 2082.43C7558.8 2119.55 7536.12 2167.66 7536.12 2226.76H7977.35ZM8930.76 2354.6H8328.69C8332.82 2409.58 8358.25 2454.25 8404.98 2488.62C8451.72 2522.98 8506.01 2540.16 8567.87 2540.16C8665.46 2540.16 8738.32 2509.92 8786.43 2449.44L8879.21 2550.47C8796.74 2637.07 8688.83 2680.37 8555.5 2680.37C8445.53 2680.37 8353.44 2643.95 8279.21 2571.09C8204.98 2498.24 8167.87 2402.02 8167.87 2282.43C8167.87 2165.59 8205.67 2070.75 8281.27 1997.9C8356.87 1925.04 8448.28 1888.62 8555.5 1888.62C8662.71 1888.62 8752.06 1920.92 8823.54 1985.53C8895.02 2050.13 8930.76 2136.04 8930.76 2243.26V2354.6ZM8769.93 2226.76C8769.93 2164.91 8750 2116.11 8710.14 2080.37C8671.65 2044.63 8621.48 2026.76 8559.62 2026.76C8497.77 2026.76 8443.47 2045.32 8396.74 2082.43C8351.37 2119.55 8328.69 2167.66 8328.69 2226.76H8769.93ZM9170.76 2338.1V2668H9009.93V1900.99H9170.76V2053.57C9196.87 2005.46 9231.93 1966.28 9275.91 1936.04C9321.27 1905.8 9368.69 1889.99 9418.18 1888.62L9420.24 2051.51H9411.99C9333.64 2051.51 9273.85 2076.93 9232.61 2127.79C9191.38 2178.65 9170.76 2248.76 9170.76 2338.1ZM9746.12 2680.37C9622.4 2680.37 9511.06 2641.88 9412.09 2564.91L9490.45 2439.13C9578.42 2506.49 9665.02 2540.16 9750.24 2540.16C9785.98 2540.16 9814.16 2531.92 9834.77 2515.42C9856.77 2497.55 9867.76 2475.56 9867.76 2449.44C9867.76 2410.96 9816.91 2376.59 9715.19 2346.35C9712.44 2344.98 9709 2343.6 9704.88 2342.23C9702.13 2340.85 9700.07 2340.16 9698.69 2340.16C9539.24 2297.55 9459.52 2225.39 9459.52 2123.67C9459.52 2052.19 9486.32 1995.15 9539.93 1952.54C9594.91 1909.92 9667.08 1888.62 9756.42 1888.62C9844.4 1888.62 9928.25 1914.74 10008 1966.97L9948.18 2086.56C9886.32 2045.32 9818.28 2024.7 9744.05 2024.7C9657.46 2024.7 9614.16 2052.19 9614.16 2107.18C9614.16 2130.54 9622.4 2147.73 9638.9 2158.72C9656.77 2168.34 9685.63 2177.97 9725.5 2187.59C9785.98 2204.08 9836.84 2220.58 9878.07 2237.07C9905.57 2249.44 9929.62 2262.5 9950.24 2276.25C10002.5 2311.99 10028.6 2366.28 10028.6 2439.13C10028.6 2510.61 10001.8 2569.03 9948.18 2614.39C9895.94 2658.38 9828.59 2680.37 9746.12 2680.37Z" fill="white"/>
</svg>
